STARTFONT 2.1
FONT -Monotype-Century Schoolbook-Bold-R-Normal--14-100-100-100-P-73-iso8859-4
SIZE 10 100 100
FONTBOUNDINGBOX 17 18 -2 -4

STARTPROPERTIES 24
FOUNDRY "Monotype"
FAMILY_NAME "Century Schoolbook"
WEIGHT_NAME "Bold"
SLANT "R"
SETWIDTH_NAME "Normal"
ADD_STYLE_NAME ""
PIXEL_SIZE 14
POINT_SIZE 100
RESOLUTION_X 100
RESOLUTION_Y 100
SPACING "P"
AVERAGE_WIDTH 73
CHARSET_REGISTRY "iso8859"
CHARSET_ENCODING "4"
FACE_NAME "Century Schoolbook Bold ISO Latin4"
_DEC_DEVICE_FONTNAMES "PS=centuryschoolbook-b-lat4"
COPYRIGHT "Copyright (c) 1994 Monotype Typography Ltd."
CAP_HEIGHT 12
X_HEIGHT 8
WEIGHT 10
QUAD_WIDTH 8
DEFAULT_CHAR 160
FONT_DESCENT 4
FONT_ASCENT 14
ENDPROPERTIES

CHARS 191

STARTCHAR space
ENCODING 32
SWIDTH 287 0
DWIDTH 4 0
BBX 0 0 0 0
BITMAP
ENDCHAR

STARTCHAR exclam
ENCODING 33
SWIDTH 296 0
DWIDTH 4 0
BBX 2 10 1 0
BITMAP
C0
C0
C0
C0
C0
40
40
00
C0
C0
ENDCHAR

STARTCHAR quotedbl
ENCODING 34
SWIDTH 333 0
DWIDTH 5 0
BBX 5 5 0 5
BITMAP
D8
D8
D8
48
48
ENDCHAR

STARTCHAR numbersign
ENCODING 35
SWIDTH 574 0
DWIDTH 8 0
BBX 8 10 0 0
BITMAP
12
12
12
7F
24
24
FE
48
48
48
ENDCHAR

STARTCHAR dollar
ENCODING 36
SWIDTH 574 0
DWIDTH 8 0
BBX 6 13 1 -2
BITMAP
10
78
DC
D4
D0
70
38
2C
AC
EC
78
20
20
ENDCHAR

STARTCHAR percent
ENCODING 37
SWIDTH 833 0
DWIDTH 12 0
BBX 12 10 0 0
BITMAP
7080
D900
D900
DA00
DCE0
75B0
09B0
11B0
11B0
20E0
ENDCHAR

STARTCHAR ampersand
ENCODING 38
SWIDTH 852 0
DWIDTH 12 0
BBX 11 10 1 0
BITMAP
1C00
3600
3600
3400
19C0
6C80
CC80
C700
E3A0
7DC0
ENDCHAR

STARTCHAR quoteright
ENCODING 39
SWIDTH 241 0
DWIDTH 3 0
BBX 2 4 0 6
BITMAP
C0
C0
40
80
ENDCHAR

STARTCHAR parenleft
ENCODING 40
SWIDTH 389 0
DWIDTH 5 0
BBX 4 13 1 -3
BITMAP
10
20
60
40
C0
C0
C0
C0
C0
40
60
20
10
ENDCHAR

STARTCHAR parenright
ENCODING 41
SWIDTH 389 0
DWIDTH 5 0
BBX 4 13 0 -3
BITMAP
80
40
60
20
30
30
30
30
30
20
60
40
80
ENDCHAR

STARTCHAR asterisk
ENCODING 42
SWIDTH 500 0
DWIDTH 7 0
BBX 5 6 2 4
BITMAP
20
A8
70
70
A8
20
ENDCHAR

STARTCHAR plus
ENCODING 43
SWIDTH 606 0
DWIDTH 8 0
BBX 7 7 1 1
BITMAP
10
10
10
FE
10
10
10
ENDCHAR

STARTCHAR comma
ENCODING 44
SWIDTH 278 0
DWIDTH 4 0
BBX 2 4 1 -2
BITMAP
C0
C0
40
80
ENDCHAR

STARTCHAR minus
ENCODING 45
SWIDTH 606 0
DWIDTH 8 0
BBX 7 1 1 4
BITMAP
FE
ENDCHAR

STARTCHAR period
ENCODING 46
SWIDTH 278 0
DWIDTH 4 0
BBX 2 2 1 0
BITMAP
C0
C0
ENDCHAR

STARTCHAR slash
ENCODING 47
SWIDTH 278 0
DWIDTH 4 0
BBX 4 10 0 0
BITMAP
10
10
30
20
20
60
40
40
C0
80
ENDCHAR

STARTCHAR zero
ENCODING 48
SWIDTH 574 0
DWIDTH 8 0
BBX 7 10 1 0
BITMAP
38
6C
C6
C6
C6
C6
C6
C6
6C
38
ENDCHAR

STARTCHAR one
ENCODING 49
SWIDTH 574 0
DWIDTH 8 0
BBX 6 10 1 0
BITMAP
10
F0
30
30
30
30
30
30
30
FC
ENDCHAR

STARTCHAR two
ENCODING 50
SWIDTH 574 0
DWIDTH 8 0
BBX 6 10 1 0
BITMAP
78
9C
CC
4C
18
10
20
44
FC
FC
ENDCHAR

STARTCHAR three
ENCODING 51
SWIDTH 574 0
DWIDTH 8 0
BBX 6 10 1 0
BITMAP
78
CC
4C
0C
38
0C
0C
4C
CC
78
ENDCHAR

STARTCHAR four
ENCODING 52
SWIDTH 574 0
DWIDTH 8 0
BBX 6 10 1 0
BITMAP
08
18
18
38
58
58
98
FC
18
3C
ENDCHAR

STARTCHAR five
ENCODING 53
SWIDTH 574 0
DWIDTH 8 0
BBX 6 10 2 0
BITMAP
7C
78
40
F0
98
0C
0C
4C
D8
70
ENDCHAR

STARTCHAR six
ENCODING 54
SWIDTH 574 0
DWIDTH 8 0
BBX 6 10 1 0
BITMAP
38
6C
C8
C0
F8
CC
CC
CC
CC
78
ENDCHAR

STARTCHAR seven
ENCODING 55
SWIDTH 574 0
DWIDTH 8 0
BBX 7 10 1 0
BITMAP
FE
FE
84
0C
08
18
18
30
30
30
ENDCHAR

STARTCHAR eight
ENCODING 56
SWIDTH 574 0
DWIDTH 8 0
BBX 6 10 1 0
BITMAP
78
CC
C4
E8
78
58
CC
8C
CC
78
ENDCHAR

STARTCHAR nine
ENCODING 57
SWIDTH 574 0
DWIDTH 8 0
BBX 6 10 1 0
BITMAP
78
CC
CC
CC
CC
7C
0C
4C
D8
70
ENDCHAR

STARTCHAR colon
ENCODING 58
SWIDTH 278 0
DWIDTH 4 0
BBX 2 7 1 0
BITMAP
C0
C0
00
00
00
C0
C0
ENDCHAR

STARTCHAR semicolon
ENCODING 59
SWIDTH 278 0
DWIDTH 4 0
BBX 2 9 1 -2
BITMAP
C0
C0
00
00
00
C0
C0
40
80
ENDCHAR

STARTCHAR less
ENCODING 60
SWIDTH 606 0
DWIDTH 8 0
BBX 8 8 0 1
BITMAP
03
0E
38
E0
E0
38
0E
03
ENDCHAR

STARTCHAR equal
ENCODING 61
SWIDTH 606 0
DWIDTH 8 0
BBX 7 4 1 3
BITMAP
FE
00
00
FE
ENDCHAR

STARTCHAR greater
ENCODING 62
SWIDTH 606 0
DWIDTH 8 0
BBX 8 8 1 1
BITMAP
C0
70
1C
07
07
1C
70
C0
ENDCHAR

STARTCHAR question
ENCODING 63
SWIDTH 500 0
DWIDTH 7 0
BBX 5 10 1 0
BITMAP
70
D8
58
18
30
20
20
00
60
60
ENDCHAR

STARTCHAR at
ENCODING 64
SWIDTH 747 0
DWIDTH 10 0
BBX 10 12 0 -2
BITMAP
1E00
6180
4080
8F40
9640
9640
B640
BD80
9640
4080
6180
1E00
ENDCHAR

STARTCHAR A
ENCODING 65
SWIDTH 759 0
DWIDTH 11 0
BBX 11 10 0 0
BITMAP
0400
0C00
0E00
1E00
1700
2300
3F80
4180
41C0
E3E0
ENDCHAR

STARTCHAR B
ENCODING 66
SWIDTH 778 0
DWIDTH 11 0
BBX 9 10 1 0
BITMAP
FF00
6180
6180
6180
7F00
6180
6180
6180
6180
FF00
ENDCHAR

STARTCHAR C
ENCODING 67
SWIDTH 778 0
DWIDTH 11 0
BBX 9 10 1 0
BITMAP
3E80
6180
C080
C080
C000
C000
C080
C080
6100
3E00
ENDCHAR

STARTCHAR D
ENCODING 68
SWIDTH 833 0
DWIDTH 12 0
BBX 10 10 1 0
BITMAP
FF00
6180
60C0
60C0
60C0
60C0
60C0
60C0
6180
FF00
ENDCHAR

STARTCHAR E
ENCODING 69
SWIDTH 759 0
DWIDTH 11 0
BBX 9 10 1 0
BITMAP
FF00
6180
6480
6400
7C00
6400
6400
6080
6180
FF00
ENDCHAR

STARTCHAR F
ENCODING 70
SWIDTH 722 0
DWIDTH 10 0
BBX 9 10 1 0
BITMAP
FF00
6180
6480
6400
7C00
6400
6400
6000
6000
F000
ENDCHAR

STARTCHAR G
ENCODING 71
SWIDTH 833 0
DWIDTH 12 0
BBX 10 10 1 0
BITMAP
3E80
6180
C080
C080
C000
C7C0
C180
C180
6280
3C80
ENDCHAR

STARTCHAR H
ENCODING 72
SWIDTH 870 0
DWIDTH 12 0
BBX 10 10 1 0
BITMAP
F3C0
6180
6180
6180
7F80
6180
6180
6180
6180
F3C0
ENDCHAR

STARTCHAR I
ENCODING 73
SWIDTH 444 0
DWIDTH 6 0
BBX 4 10 1 0
BITMAP
F0
60
60
60
60
60
60
60
60
F0
ENDCHAR

STARTCHAR J
ENCODING 74
SWIDTH 648 0
DWIDTH 9 0
BBX 7 10 1 0
BITMAP
1E
0C
0C
0C
0C
0C
4C
CC
8C
78
ENDCHAR

STARTCHAR K
ENCODING 75
SWIDTH 815 0
DWIDTH 11 0
BBX 11 10 1 0
BITMAP
F3C0
6100
6200
6400
6800
7C00
6600
6300
6180
F3E0
ENDCHAR

STARTCHAR L
ENCODING 76
SWIDTH 722 0
DWIDTH 10 0
BBX 8 10 1 0
BITMAP
F0
60
60
60
60
60
60
61
63
FE
ENDCHAR

STARTCHAR M
ENCODING 77
SWIDTH 981 0
DWIDTH 14 0
BBX 12 10 1 0
BITMAP
F0F0
70E0
5960
5960
5960
4E60
4E60
4E60
4460
E4F0
ENDCHAR

STARTCHAR N
ENCODING 78
SWIDTH 833 0
DWIDTH 12 0
BBX 10 10 1 0
BITMAP
E1C0
7080
7880
5880
4C80
4E80
4680
4380
4380
E180
ENDCHAR

STARTCHAR O
ENCODING 79
SWIDTH 833 0
DWIDTH 12 0
BBX 10 10 1 0
BITMAP
1E00
6180
C0C0
C0C0
C0C0
C0C0
C0C0
C0C0
6180
1E00
ENDCHAR

STARTCHAR P
ENCODING 80
SWIDTH 759 0
DWIDTH 11 0
BBX 9 10 1 0
BITMAP
FF00
6380
6180
6180
6380
7F00
6000
6000
6000
F000
ENDCHAR

STARTCHAR Q
ENCODING 81
SWIDTH 833 0
DWIDTH 12 0
BBX 11 13 1 -3
BITMAP
1E00
6180
C0C0
C0C0
C0C0
C0C0
DCC0
E2C0
6380
1F00
01A0
01E0
00C0
ENDCHAR

STARTCHAR R
ENCODING 82
SWIDTH 815 0
DWIDTH 11 0
BBX 10 10 1 0
BITMAP
FF00
6180
6180
6180
7F00
6600
6600
6300
6340
F180
ENDCHAR

STARTCHAR S
ENCODING 83
SWIDTH 667 0
DWIDTH 9 0
BBX 7 10 1 0
BITMAP
7A
C6
C2
E2
70
3C
8E
86
C6
BC
ENDCHAR

STARTCHAR T
ENCODING 84
SWIDTH 722 0
DWIDTH 10 0
BBX 10 10 0 0
BITMAP
7F80
CCC0
8C40
8C40
0C00
0C00
0C00
0C00
0C00
1E00
ENDCHAR

STARTCHAR U
ENCODING 85
SWIDTH 833 0
DWIDTH 12 0
BBX 10 10 1 0
BITMAP
F1C0
6080
6080
6080
6080
6080
6080
6080
3100
1E00
ENDCHAR

STARTCHAR V
ENCODING 86
SWIDTH 759 0
DWIDTH 10 0
BBX 10 10 0 0
BITMAP
F1C0
6080
6100
3100
3200
3200
1C00
1C00
0800
0800
ENDCHAR

STARTCHAR W
ENCODING 87
SWIDTH 981 0
DWIDTH 14 0
BBX 14 10 0 0
BITMAP
F79C
6308
6308
3190
3190
33D0
1CE0
1CE0
0840
0840
ENDCHAR

STARTCHAR X
ENCODING 88
SWIDTH 722 0
DWIDTH 10 0
BBX 10 10 0 0
BITMAP
F1C0
6080
3100
1A00
0C00
0C00
1600
2300
4180
E3C0
ENDCHAR

STARTCHAR Y
ENCODING 89
SWIDTH 722 0
DWIDTH 10 0
BBX 10 10 0 0
BITMAP
F1C0
6080
3100
3100
1A00
0C00
0C00
0C00
0C00
1E00
ENDCHAR

STARTCHAR Z
ENCODING 90
SWIDTH 667 0
DWIDTH 9 0
BBX 7 10 1 0
BITMAP
7E
C6
8C
0C
18
30
60
62
C6
FC
ENDCHAR

STARTCHAR bracketleft
ENCODING 91
SWIDTH 389 0
DWIDTH 5 0
BBX 3 13 1 -3
BITMAP
E0
C0
C0
C0
C0
C0
C0
C0
C0
C0
C0
C0
E0
ENDCHAR

STARTCHAR backslash
ENCODING 92
SWIDTH 606 0
DWIDTH 8 0
BBX 7 10 0 0
BITMAP
80
40
60
20
10
18
08
04
06
02
ENDCHAR

STARTCHAR bracketright
ENCODING 93
SWIDTH 389 0
DWIDTH 5 0
BBX 3 13 0 -3
BITMAP
E0
60
60
60
60
60
60
60
60
60
60
60
E0
ENDCHAR

STARTCHAR asciicircum
ENCODING 94
SWIDTH 606 0
DWIDTH 8 0
BBX 7 5 1 5
BITMAP
10
10
38
6C
C6
ENDCHAR

STARTCHAR underscore
ENCODING 95
SWIDTH 500 0
DWIDTH 7 0
BBX 7 1 0 -2
BITMAP
FE
ENDCHAR

STARTCHAR quoteleft
ENCODING 96
SWIDTH 241 0
DWIDTH 3 0
BBX 2 4 0 6
BITMAP
40
80
C0
C0
ENDCHAR

STARTCHAR a
ENCODING 97
SWIDTH 611 0
DWIDTH 9 0
BBX 8 7 0 0
BITMAP
7C
C6
06
7E
C6
C6
7B
ENDCHAR

STARTCHAR b
ENCODING 98
SWIDTH 648 0
DWIDTH 9 0
BBX 8 10 0 0
BITMAP
E0
60
60
6C
76
63
63
63
76
4C
ENDCHAR

STARTCHAR c
ENCODING 99
SWIDTH 556 0
DWIDTH 8 0
BBX 7 7 0 0
BITMAP
3C
66
C6
C0
C0
66
3C
ENDCHAR

STARTCHAR d
ENCODING 100
SWIDTH 667 0
DWIDTH 9 0
BBX 8 10 0 0
BITMAP
0E
06
06
36
6E
C6
C6
C6
6E
37
ENDCHAR

STARTCHAR e
ENCODING 101
SWIDTH 574 0
DWIDTH 8 0
BBX 7 7 0 0
BITMAP
38
6C
C6
FE
C0
66
3C
ENDCHAR

STARTCHAR f
ENCODING 102
SWIDTH 389 0
DWIDTH 5 0
BBX 6 10 0 0
BITMAP
38
6C
60
F8
60
60
60
60
60
F0
ENDCHAR

STARTCHAR g
ENCODING 103
SWIDTH 611 0
DWIDTH 9 0
BBX 7 11 1 -3
BITMAP
02
7E
CC
CC
CC
78
80
FC
7E
82
7C
ENDCHAR

STARTCHAR h
ENCODING 104
SWIDTH 685 0
DWIDTH 10 0
BBX 9 10 0 0
BITMAP
E000
6000
6000
6E00
7300
6300
6300
6300
6300
F780
ENDCHAR

STARTCHAR i
ENCODING 105
SWIDTH 370 0
DWIDTH 5 0
BBX 4 10 0 0
BITMAP
60
60
00
E0
60
60
60
60
60
F0
ENDCHAR

STARTCHAR j
ENCODING 106
SWIDTH 352 0
DWIDTH 5 0
BBX 4 13 -1 -3
BITMAP
30
30
00
70
30
30
30
30
30
30
30
A0
C0
ENDCHAR

STARTCHAR k
ENCODING 107
SWIDTH 667 0
DWIDTH 9 0
BBX 9 10 0 0
BITMAP
E000
6000
6000
6F00
6400
6800
7800
6C00
6600
F780
ENDCHAR

STARTCHAR l
ENCODING 108
SWIDTH 352 0
DWIDTH 5 0
BBX 4 10 0 0
BITMAP
E0
60
60
60
60
60
60
60
60
F0
ENDCHAR

STARTCHAR m
ENCODING 109
SWIDTH 963 0
DWIDTH 13 0
BBX 12 7 0 0
BITMAP
EEC0
7760
6660
6660
6660
6660
F770
ENDCHAR

STARTCHAR n
ENCODING 110
SWIDTH 685 0
DWIDTH 10 0
BBX 9 7 0 0
BITMAP
EE00
7300
6300
6300
6300
6300
F780
ENDCHAR

STARTCHAR o
ENCODING 111
SWIDTH 611 0
DWIDTH 9 0
BBX 8 7 0 0
BITMAP
3C
66
C3
C3
C3
66
3C
ENDCHAR

STARTCHAR p
ENCODING 112
SWIDTH 667 0
DWIDTH 9 0
BBX 8 10 0 -3
BITMAP
EC
76
63
63
63
76
6C
60
60
F0
ENDCHAR

STARTCHAR q
ENCODING 113
SWIDTH 648 0
DWIDTH 9 0
BBX 8 10 0 -3
BITMAP
37
6E
C6
C6
C6
6E
36
06
06
0F
ENDCHAR

STARTCHAR r
ENCODING 114
SWIDTH 519 0
DWIDTH 7 0
BBX 7 7 0 0
BITMAP
EC
7E
64
60
60
60
F0
ENDCHAR

STARTCHAR s
ENCODING 115
SWIDTH 500 0
DWIDTH 7 0
BBX 6 7 0 0
BITMAP
78
CC
E0
78
1C
CC
78
ENDCHAR

STARTCHAR t
ENCODING 116
SWIDTH 426 0
DWIDTH 6 0
BBX 5 9 0 0
BITMAP
20
60
F8
60
60
60
68
68
30
ENDCHAR

STARTCHAR u
ENCODING 117
SWIDTH 685 0
DWIDTH 10 0
BBX 9 7 0 0
BITMAP
E700
6300
6300
6300
6300
6700
3B80
ENDCHAR

STARTCHAR v
ENCODING 118
SWIDTH 611 0
DWIDTH 9 0
BBX 8 7 0 0
BITMAP
F7
62
62
34
34
18
18
ENDCHAR

STARTCHAR w
ENCODING 119
SWIDTH 889 0
DWIDTH 12 0
BBX 12 7 0 0
BITMAP
F770
6320
6320
3740
3540
1980
1980
ENDCHAR

STARTCHAR x
ENCODING 120
SWIDTH 611 0
DWIDTH 9 0
BBX 8 7 0 0
BITMAP
F7
62
34
18
2C
46
EF
ENDCHAR

STARTCHAR y
ENCODING 121
SWIDTH 611 0
DWIDTH 9 0
BBX 8 10 0 -3
BITMAP
F7
62
34
34
18
18
08
10
D0
60
ENDCHAR

STARTCHAR z
ENCODING 122
SWIDTH 537 0
DWIDTH 8 0
BBX 6 7 1 0
BITMAP
FC
98
B0
30
64
C4
FC
ENDCHAR

STARTCHAR braceleft
ENCODING 123
SWIDTH 389 0
DWIDTH 5 0
BBX 4 13 0 -3
BITMAP
10
20
60
60
60
60
C0
60
60
60
60
20
10
ENDCHAR

STARTCHAR bar
ENCODING 124
SWIDTH 606 0
DWIDTH 8 0
BBX 2 13 3 -3
BITMAP
C0
C0
C0
C0
C0
C0
C0
C0
C0
C0
C0
C0
C0
ENDCHAR

STARTCHAR braceright
ENCODING 125
SWIDTH 389 0
DWIDTH 5 0
BBX 4 13 0 -3
BITMAP
80
40
60
60
60
60
30
60
60
60
60
40
80
ENDCHAR

STARTCHAR asciitilde
ENCODING 126
SWIDTH 606 0
DWIDTH 8 0
BBX 8 2 0 4
BITMAP
79
9E
ENDCHAR

STARTCHAR space
ENCODING 160
SWIDTH 287 0
DWIDTH 5 0
BBX 0 0 0 0
BITMAP
ENDCHAR

STARTCHAR Aogonek
ENCODING 161
SWIDTH 759 0
DWIDTH 11 0
BBX 11 12 0 -2
BITMAP
0400
0C00
0E00
1E00
1700
2300
3F80
4180
41C0
E3E0
0180
00E0
ENDCHAR

STARTCHAR afii240
ENCODING 162
SWIDTH 556 0
DWIDTH 8 0
BBX 8 7 0 0
BITMAP
F7
64
68
78
6C
66
F7
ENDCHAR

STARTCHAR Rcommaaccent
ENCODING 163
SWIDTH 815 0
DWIDTH 11 0
BBX 10 14 1 -4
BITMAP
FF00
6180
6180
6180
7F00
6600
6600
6300
6340
F180
0000
1800
1800
3000
ENDCHAR

STARTCHAR currency
ENCODING 164
SWIDTH 606 0
DWIDTH 8 0
BBX 6 6 1 2
BITMAP
B4
48
CC
CC
48
B4
ENDCHAR

STARTCHAR Itilde
ENCODING 165
SWIDTH 444 0
DWIDTH 6 0
BBX 5 13 1 0
BITMAP
68
B0
00
F0
60
60
60
60
60
60
60
60
F0
ENDCHAR

STARTCHAR Lcommaaccent
ENCODING 166
SWIDTH 722 0
DWIDTH 10 0
BBX 8 14 1 -4
BITMAP
F0
60
60
60
60
60
60
61
63
FE
00
30
30
60
ENDCHAR

STARTCHAR section
ENCODING 167
SWIDTH 500 0
DWIDTH 7 0
BBX 6 13 0 -3
BITMAP
38
4C
64
70
B8
9C
CC
E4
74
38
98
C8
70
ENDCHAR

STARTCHAR hungarumlaut
ENCODING 168
SWIDTH 333 0
DWIDTH 5 0
BBX 6 2 0 8
BITMAP
6C
D8
ENDCHAR

STARTCHAR Scaron
ENCODING 169
SWIDTH 667 0
DWIDTH 9 0
BBX 7 13 1 0
BITMAP
24
18
00
7A
C6
C2
E2
70
3C
8E
86
C6
BC
ENDCHAR

STARTCHAR Emacron
ENCODING 170
SWIDTH 759 0
DWIDTH 11 0
BBX 9 12 1 0
BITMAP
3E00
0000
FF00
6180
6480
6400
7C00
6400
6400
6080
6180
FF00
ENDCHAR

STARTCHAR Gcommaaccent
ENCODING 171
SWIDTH 833 0
DWIDTH 12 0
BBX 10 14 1 -4
BITMAP
3E80
6180
C080
C080
C000
C7C0
C180
C180
6280
3C80
0000
1800
1800
3000
ENDCHAR

STARTCHAR afii237
ENCODING 172
SWIDTH 667 0
DWIDTH 10 0
BBX 10 10 0 0
BITMAP
7F80
CCC0
8C40
8C40
0C00
7F80
0C00
0C00
0C00
1E00
ENDCHAR

STARTCHAR hyphen
ENCODING 173
SWIDTH 333 0
DWIDTH 5 0
BBX 5 1 0 3
BITMAP
F8
ENDCHAR

STARTCHAR Zcaron
ENCODING 174
SWIDTH 667 0
DWIDTH 9 0
BBX 7 13 1 0
BITMAP
24
18
00
7E
C6
8C
0C
18
30
60
62
C6
FC
ENDCHAR

STARTCHAR macron
ENCODING 175
SWIDTH 333 0
DWIDTH 5 0
BBX 5 1 0 8
BITMAP
F8
ENDCHAR

STARTCHAR degree
ENCODING 176
SWIDTH 400 0
DWIDTH 6 0
BBX 5 5 0 5
BITMAP
70
D8
88
D8
70
ENDCHAR

STARTCHAR aogonek
ENCODING 177
SWIDTH 611 0
DWIDTH 9 0
BBX 10 9 0 -2
BITMAP
7C00
C600
0600
7E00
C600
C600
7B00
0300
01C0
ENDCHAR

STARTCHAR ogonek
ENCODING 178
SWIDTH 333 0
DWIDTH 5 0
BBX 4 2 1 -2
BITMAP
C0
70
ENDCHAR

STARTCHAR rcommaaccent
ENCODING 179
SWIDTH 519 0
DWIDTH 7 0
BBX 7 11 0 -4
BITMAP
EC
7E
64
60
60
60
F0
00
60
60
C0
ENDCHAR

STARTCHAR acute
ENCODING 180
SWIDTH 333 0
DWIDTH 5 0
BBX 3 2 1 8
BITMAP
60
C0
ENDCHAR

STARTCHAR itilde
ENCODING 181
SWIDTH 370 0
DWIDTH 5 0
BBX 5 10 0 0
BITMAP
68
B0
00
E0
60
60
60
60
60
F0
ENDCHAR

STARTCHAR lcommaaccent
ENCODING 182
SWIDTH 352 0
DWIDTH 5 0
BBX 4 14 0 -4
BITMAP
E0
60
60
60
60
60
60
60
60
F0
00
60
60
C0
ENDCHAR

STARTCHAR caron
ENCODING 183
SWIDTH 333 0
DWIDTH 5 0
BBX 4 2 1 8
BITMAP
90
60
ENDCHAR

STARTCHAR commaaccent
ENCODING 184
SWIDTH 333 0
DWIDTH 5 0
BBX 3 3 1 -4
BITMAP
60
60
C0
ENDCHAR

STARTCHAR scaron
ENCODING 185
SWIDTH 500 0
DWIDTH 7 0
BBX 6 10 0 0
BITMAP
48
30
00
78
CC
E0
78
1C
CC
78
ENDCHAR

STARTCHAR emacron
ENCODING 186
SWIDTH 574 0
DWIDTH 8 0
BBX 7 9 0 0
BITMAP
7C
00
38
6C
C6
FE
C0
66
3C
ENDCHAR

STARTCHAR gcommaaccent
ENCODING 187
SWIDTH 611 0
DWIDTH 9 0
BBX 7 14 1 -3
BITMAP
08
10
10
02
7E
CC
CC
CC
78
80
FC
7E
82
7C
ENDCHAR

STARTCHAR afii253
ENCODING 188
SWIDTH 333 0
DWIDTH 6 0
BBX 5 9 0 0
BITMAP
20
60
F8
60
F8
60
68
68
30
ENDCHAR

STARTCHAR afii238
ENCODING 189
SWIDTH 757 0
DWIDTH 11 0
BBX 9 10 1 0
BITMAP
EE00
7300
6180
6180
6180
6180
6180
6980
6900
F600
ENDCHAR

STARTCHAR zcaron
ENCODING 190
SWIDTH 537 0
DWIDTH 8 0
BBX 6 10 1 0
BITMAP
24
18
00
FC
98
B0
30
64
C4
FC
ENDCHAR

STARTCHAR afii254
ENCODING 191
SWIDTH 556 0
DWIDTH 8 0
BBX 8 10 0 -3
BITMAP
EE
73
63
63
63
63
F3
03
0B
0E
ENDCHAR

STARTCHAR Amacron
ENCODING 192
SWIDTH 759 0
DWIDTH 11 0
BBX 11 12 0 0
BITMAP
1F00
0000
0400
0C00
0E00
1E00
1700
2300
3F80
4180
41C0
E3E0
ENDCHAR

STARTCHAR Aacute
ENCODING 193
SWIDTH 759 0
DWIDTH 11 0
BBX 11 13 0 0
BITMAP
0600
0C00
0000
0400
0C00
0E00
1E00
1700
2300
3F80
4180
41C0
E3E0
ENDCHAR

STARTCHAR Acircumflex
ENCODING 194
SWIDTH 759 0
DWIDTH 11 0
BBX 11 13 0 0
BITMAP
0C00
1200
0000
0400
0C00
0E00
1E00
1700
2300
3F80
4180
41C0
E3E0
ENDCHAR

STARTCHAR Atilde
ENCODING 195
SWIDTH 759 0
DWIDTH 11 0
BBX 11 13 0 0
BITMAP
0D00
1600
0000
0400
0C00
0E00
1E00
1700
2300
3F80
4180
41C0
E3E0
ENDCHAR

STARTCHAR Adieresis
ENCODING 196
SWIDTH 759 0
DWIDTH 11 0
BBX 11 13 0 0
BITMAP
1B00
1B00
0000
0400
0C00
0E00
1E00
1700
2300
3F80
4180
41C0
E3E0
ENDCHAR

STARTCHAR Aring
ENCODING 197
SWIDTH 759 0
DWIDTH 11 0
BBX 11 14 0 0
BITMAP
0400
0A00
0400
0000
0400
0C00
0E00
1E00
1700
2300
3F80
4180
41C0
E3E0
ENDCHAR

STARTCHAR AE
ENCODING 198
SWIDTH 981 0
DWIDTH 14 0
BBX 13 10 1 0
BITMAP
1FF0
0F18
0B08
1320
13E0
2320
3F00
4308
4318
EFF0
ENDCHAR

STARTCHAR Iogonek
ENCODING 199
SWIDTH 444 0
DWIDTH 6 0
BBX 5 12 1 -2
BITMAP
F0
60
60
60
60
60
60
60
60
F0
60
38
ENDCHAR

STARTCHAR Ccaron
ENCODING 200
SWIDTH 778 0
DWIDTH 11 0
BBX 9 13 1 0
BITMAP
1200
0C00
0000
3E80
6180
C080
C080
C000
C000
C080
C080
6100
3E00
ENDCHAR

STARTCHAR Eacute
ENCODING 201
SWIDTH 759 0
DWIDTH 11 0
BBX 9 13 1 0
BITMAP
0600
0C00
0000
FF00
6180
6480
6400
7C00
6400
6400
6080
6180
FF00
ENDCHAR

STARTCHAR Eogonek
ENCODING 202
SWIDTH 759 0
DWIDTH 11 0
BBX 9 12 1 -2
BITMAP
FF00
6180
6480
6400
7C00
6400
6400
6080
6180
FF00
0600
0380
ENDCHAR

STARTCHAR Edieresis
ENCODING 203
SWIDTH 759 0
DWIDTH 11 0
BBX 9 13 1 0
BITMAP
3600
3600
0000
FF00
6180
6480
6400
7C00
6400
6400
6080
6180
FF00
ENDCHAR

STARTCHAR Edotaccent
ENCODING 204
SWIDTH 759 0
DWIDTH 11 0
BBX 9 13 1 0
BITMAP
0C00
0C00
0000
FF00
6180
6480
6400
7C00
6400
6400
6080
6180
FF00
ENDCHAR

STARTCHAR Iacute
ENCODING 205
SWIDTH 444 0
DWIDTH 6 0
BBX 4 13 1 0
BITMAP
30
60
00
F0
60
60
60
60
60
60
60
60
F0
ENDCHAR

STARTCHAR Icircumflex
ENCODING 206
SWIDTH 444 0
DWIDTH 6 0
BBX 4 13 1 0
BITMAP
60
90
00
F0
60
60
60
60
60
60
60
60
F0
ENDCHAR

STARTCHAR Imacron
ENCODING 207
SWIDTH 444 0
DWIDTH 6 0
BBX 5 12 1 0
BITMAP
F8
00
F0
60
60
60
60
60
60
60
60
F0
ENDCHAR

STARTCHAR Eth
ENCODING 208
SWIDTH 833 0
DWIDTH 12 0
BBX 10 10 1 0
BITMAP
FF00
6180
60C0
60C0
F8C0
60C0
60C0
60C0
6180
FF00
ENDCHAR

STARTCHAR Ncommaaccent
ENCODING 209
SWIDTH 833 0
DWIDTH 12 0
BBX 10 14 1 -4
BITMAP
E1C0
7080
7880
5880
4C80
4E80
4680
4380
4380
E180
0000
0C00
0C00
1800
ENDCHAR

STARTCHAR Omacron
ENCODING 210
SWIDTH 833 0
DWIDTH 12 0
BBX 10 12 1 0
BITMAP
1F00
0000
1E00
6180
C0C0
C0C0
C0C0
C0C0
C0C0
C0C0
6180
1E00
ENDCHAR

STARTCHAR Kcommaaccent
ENCODING 211
SWIDTH 815 0
DWIDTH 11 0
BBX 11 14 1 -4
BITMAP
F3C0
6100
6200
6400
6800
7C00
6600
6300
6180
F3E0
0000
0C00
0C00
1800
ENDCHAR

STARTCHAR Ocircumflex
ENCODING 212
SWIDTH 833 0
DWIDTH 12 0
BBX 10 13 1 0
BITMAP
0C00
1200
0000
1E00
6180
C0C0
C0C0
C0C0
C0C0
C0C0
C0C0
6180
1E00
ENDCHAR

STARTCHAR Otilde
ENCODING 213
SWIDTH 833 0
DWIDTH 12 0
BBX 10 13 1 0
BITMAP
0D00
1600
0000
1E00
6180
C0C0
C0C0
C0C0
C0C0
C0C0
C0C0
6180
1E00
ENDCHAR

STARTCHAR Odieresis
ENCODING 214
SWIDTH 833 0
DWIDTH 12 0
BBX 10 13 1 0
BITMAP
1B00
1B00
0000
1E00
6180
C0C0
C0C0
C0C0
C0C0
C0C0
C0C0
6180
1E00
ENDCHAR

STARTCHAR multiply
ENCODING 215
SWIDTH 650 0
DWIDTH 9 0
BBX 7 6 1 2
BITMAP
C6
6C
38
38
6C
C6
ENDCHAR

STARTCHAR Oslash
ENCODING 216
SWIDTH 833 0
DWIDTH 12 0
BBX 10 10 1 0
BITMAP
1E40
6180
C2C0
C4C0
C4C0
C8C0
D0C0
D0C0
6180
9E00
ENDCHAR

STARTCHAR Uogonek
ENCODING 217
SWIDTH 833 0
DWIDTH 12 0
BBX 10 12 1 -2
BITMAP
F1C0
6080
6080
6080
6080
6080
6080
6080
3100
1E00
0C00
0700
ENDCHAR

STARTCHAR Uacute
ENCODING 218
SWIDTH 833 0
DWIDTH 12 0
BBX 10 13 1 0
BITMAP
0600
0C00
0000
F1C0
6080
6080
6080
6080
6080
6080
6080
3100
1E00
ENDCHAR

STARTCHAR Ucircumflex
ENCODING 219
SWIDTH 833 0
DWIDTH 12 0
BBX 10 13 1 0
BITMAP
0600
0900
0000
F1C0
6080
6080
6080
6080
6080
6080
6080
3100
1E00
ENDCHAR

STARTCHAR Udieresis
ENCODING 220
SWIDTH 833 0
DWIDTH 12 0
BBX 10 13 1 0
BITMAP
1B00
1B00
0000
F1C0
6080
6080
6080
6080
6080
6080
6080
3100
1E00
ENDCHAR

STARTCHAR Utilde
ENCODING 221
SWIDTH 833 0
DWIDTH 12 0
BBX 10 13 1 0
BITMAP
0D00
1600
0000
F1C0
6080
6080
6080
6080
6080
6080
6080
3100
1E00
ENDCHAR

STARTCHAR Umacron
ENCODING 222
SWIDTH 833 0
DWIDTH 12 0
BBX 10 12 1 0
BITMAP
1F00
0000
F1C0
6080
6080
6080
6080
6080
6080
6080
3100
1E00
ENDCHAR

STARTCHAR germandbls
ENCODING 223
SWIDTH 611 0
DWIDTH 9 0
BBX 8 10 0 0
BITMAP
3E
63
63
63
66
63
63
63
63
F6
ENDCHAR

STARTCHAR amacron
ENCODING 224
SWIDTH 611 0
DWIDTH 9 0
BBX 8 9 0 0
BITMAP
7C
00
7C
C6
06
7E
C6
C6
7B
ENDCHAR

STARTCHAR aacute
ENCODING 225
SWIDTH 611 0
DWIDTH 9 0
BBX 8 10 0 0
BITMAP
18
30
00
7C
C6
06
7E
C6
C6
7B
ENDCHAR

STARTCHAR acircumflex
ENCODING 226
SWIDTH 611 0
DWIDTH 9 0
BBX 8 10 0 0
BITMAP
18
24
00
7C
C6
06
7E
C6
C6
7B
ENDCHAR

STARTCHAR atilde
ENCODING 227
SWIDTH 611 0
DWIDTH 9 0
BBX 8 10 0 0
BITMAP
1A
2C
00
7C
C6
06
7E
C6
C6
7B
ENDCHAR

STARTCHAR adieresis
ENCODING 228
SWIDTH 611 0
DWIDTH 9 0
BBX 8 10 0 0
BITMAP
6C
6C
00
7C
C6
06
7E
C6
C6
7B
ENDCHAR

STARTCHAR aring
ENCODING 229
SWIDTH 611 0
DWIDTH 9 0
BBX 8 11 0 0
BITMAP
10
28
10
00
7C
C6
06
7E
C6
C6
7B
ENDCHAR

STARTCHAR ae
ENCODING 230
SWIDTH 870 0
DWIDTH 12 0
BBX 10 7 1 0
BITMAP
7700
CD80
0CC0
7FC0
CC00
CEC0
7780
ENDCHAR

STARTCHAR iogonek
ENCODING 231
SWIDTH 370 0
DWIDTH 5 0
BBX 5 12 0 -2
BITMAP
60
60
00
E0
60
60
60
60
60
F0
60
38
ENDCHAR

STARTCHAR ccaron
ENCODING 232
SWIDTH 556 0
DWIDTH 8 0
BBX 7 10 0 0
BITMAP
24
18
00
3C
66
C6
C0
C0
66
3C
ENDCHAR

STARTCHAR eacute
ENCODING 233
SWIDTH 574 0
DWIDTH 8 0
BBX 7 10 0 0
BITMAP
18
30
00
38
6C
C6
FE
C0
66
3C
ENDCHAR

STARTCHAR eogonek
ENCODING 234
SWIDTH 574 0
DWIDTH 8 0
BBX 7 9 0 -2
BITMAP
38
6C
C6
FE
C0
66
3C
18
0E
ENDCHAR

STARTCHAR edieresis
ENCODING 235
SWIDTH 574 0
DWIDTH 8 0
BBX 7 10 0 0
BITMAP
6C
6C
00
38
6C
C6
FE
C0
66
3C
ENDCHAR

STARTCHAR edotaccent
ENCODING 236
SWIDTH 574 0
DWIDTH 8 0
BBX 7 10 0 0
BITMAP
18
18
00
38
6C
C6
FE
C0
66
3C
ENDCHAR

STARTCHAR iacute
ENCODING 237
SWIDTH 370 0
DWIDTH 5 0
BBX 4 10 0 0
BITMAP
30
60
00
E0
60
60
60
60
60
F0
ENDCHAR

STARTCHAR icircumflex
ENCODING 238
SWIDTH 370 0
DWIDTH 5 0
BBX 4 10 0 0
BITMAP
60
90
00
E0
60
60
60
60
60
F0
ENDCHAR

STARTCHAR imacron
ENCODING 239
SWIDTH 370 0
DWIDTH 5 0
BBX 5 9 0 0
BITMAP
F8
00
E0
60
60
60
60
60
F0
ENDCHAR

STARTCHAR dcroat
ENCODING 240
SWIDTH 667 0
DWIDTH 9 0
BBX 8 10 0 0
BITMAP
0E
06
0F
36
6E
C6
C6
C6
6E
37
ENDCHAR

STARTCHAR ncommaaccent
ENCODING 241
SWIDTH 685 0
DWIDTH 10 0
BBX 9 11 0 -4
BITMAP
EE00
7300
6300
6300
6300
6300
F780
0000
1800
1800
3000
ENDCHAR

STARTCHAR omacron
ENCODING 242
SWIDTH 611 0
DWIDTH 9 0
BBX 8 9 0 0
BITMAP
3E
00
3C
66
C3
C3
C3
66
3C
ENDCHAR

STARTCHAR kcommaaccent
ENCODING 243
SWIDTH 667 0
DWIDTH 9 0
BBX 9 14 0 -4
BITMAP
E000
6000
6000
6F00
6400
6800
7800
6C00
6600
F780
0000
1800
1800
3000
ENDCHAR

STARTCHAR ocircumflex
ENCODING 244
SWIDTH 611 0
DWIDTH 9 0
BBX 8 10 0 0
BITMAP
18
24
00
3C
66
C3
C3
C3
66
3C
ENDCHAR

STARTCHAR otilde
ENCODING 245
SWIDTH 611 0
DWIDTH 9 0
BBX 8 10 0 0
BITMAP
1A
2C
00
3C
66
C3
C3
C3
66
3C
ENDCHAR

STARTCHAR odieresis
ENCODING 246
SWIDTH 611 0
DWIDTH 9 0
BBX 8 10 0 0
BITMAP
36
36
00
3C
66
C3
C3
C3
66
3C
ENDCHAR

STARTCHAR divide
ENCODING 247
SWIDTH 606 0
DWIDTH 8 0
BBX 8 7 0 1
BITMAP
18
18
00
FF
00
18
18
ENDCHAR

STARTCHAR oslash
ENCODING 248
SWIDTH 611 0
DWIDTH 9 0
BBX 8 7 0 0
BITMAP
3D
66
CB
CB
D3
66
BC
ENDCHAR

STARTCHAR uogonek
ENCODING 249
SWIDTH 685 0
DWIDTH 10 0
BBX 10 9 0 -2
BITMAP
E700
6300
6300
6300
6300
6700
3B80
0300
01C0
ENDCHAR

STARTCHAR uacute
ENCODING 250
SWIDTH 685 0
DWIDTH 10 0
BBX 9 10 0 0
BITMAP
0C00
1800
0000
E700
6300
6300
6300
6300
6700
3B80
ENDCHAR

STARTCHAR ucircumflex
ENCODING 251
SWIDTH 685 0
DWIDTH 10 0
BBX 9 10 0 0
BITMAP
1800
2400
0000
E700
6300
6300
6300
6300
6700
3B80
ENDCHAR

STARTCHAR udieresis
ENCODING 252
SWIDTH 685 0
DWIDTH 10 0
BBX 9 10 0 0
BITMAP
3600
3600
0000
E700
6300
6300
6300
6300
6700
3B80
ENDCHAR

STARTCHAR utilde
ENCODING 253
SWIDTH 685 0
DWIDTH 10 0
BBX 9 10 0 0
BITMAP
1A00
2C00
0000
E700
6300
6300
6300
6300
6700
3B80
ENDCHAR

STARTCHAR umacron
ENCODING 254
SWIDTH 685 0
DWIDTH 10 0
BBX 9 9 0 0
BITMAP
3E00
0000
E700
6300
6300
6300
6300
6700
3B80
ENDCHAR

STARTCHAR dotaccent
ENCODING 255
SWIDTH 333 0
DWIDTH 5 0
BBX 2 2 1 8
BITMAP
C0
C0
ENDCHAR
ENDFONT
